<svg id="Layer_1" enable-background="new 0 0 511.475 511.475" height="512" viewBox="0 0 511.475 511.475" width="512" xmlns="http://www.w3.org/2000/svg"><g><g><g><ellipse cx="255.737" cy="255.722" fill="#685e68" rx="245.104" ry="244.793"/><path d="m255.737 470.085c-54.937 0-107.187-20.655-147.126-58.161-88.579-83.183-88.581-229.222 0-312.406 81.554-76.585 212.696-76.586 294.252 0 88.577 83.184 88.58 229.222-.001 312.406-39.938 37.506-92.188 58.161-147.125 58.161z" fill="#ffd15b"/><path d="m402.864 99.518c-45.897-43.1-107.497-61.943-167.126-56.533 46.328 4.203 91.467 23.047 127.126 56.533 88.577 83.184 88.58 229.222-.001 312.406-35.058 32.922-79.604 52.856-127.125 57.238 6.615.61 13.287.923 20 .923 54.937 0 107.187-20.655 147.125-58.161 88.581-83.184 88.578-229.222.001-312.406z" fill="#ffc344"/></g><g fill="#57be92"><path d="m291.689 130.889-15.388 7.877c-2.3 1.178-5.12.267-6.297-2.034l-23.924-46.769c-1.176-2.3-.266-5.118 2.033-6.295l15.388-7.877c2.3-1.178 5.12-.267 6.297 2.034l23.924 46.769c1.177 2.3.267 5.118-2.033 6.295z"/><path d="m116.344 217.332-16.449-5.315c-2.458-.794-3.807-3.431-3.014-5.889l16.142-49.993c.794-2.459 3.431-3.809 5.89-3.014l16.449 5.315c2.458.794 3.807 3.431 3.014 5.889l-16.142 49.993c-.794 2.459-3.431 3.809-5.89 3.014z"/><path d="m405.101 245.592 16.449 5.315c2.458.794 3.807 3.431 3.014 5.889l-16.142 49.993c-.794 2.459-3.431 3.809-5.89 3.014l-16.449-5.315c-2.458-.794-3.807-3.431-3.014-5.889l16.142-49.993c.794-2.459 3.431-3.808 5.89-3.014z"/><path d="m286.013 310.118-7.875-15.395c-1.176-2.3-.266-5.118 2.033-6.295l46.75-23.931c2.3-1.178 5.12-.267 6.297 2.034l7.875 15.395c1.176 2.3.266 5.118-2.033 6.295l-46.75 23.931c-2.301 1.177-5.12.266-6.297-2.034z"/><path d="m167.469 257.122 5.314-16.457c.794-2.459 3.431-3.809 5.89-3.014l49.973 16.147c2.458.794 3.807 3.431 3.014 5.889l-5.314 16.457c-.794 2.459-3.431 3.809-5.89 3.014l-49.973-16.147c-2.459-.794-3.808-3.43-3.014-5.889z"/><path d="m268.616 423.324-16.449-5.315c-2.458-.794-3.807-3.431-3.014-5.889l16.142-49.993c.794-2.459 3.431-3.809 5.89-3.014l16.449 5.315c2.458.794 3.807 3.431 3.014 5.889l-16.142 49.993c-.793 2.459-3.431 3.809-5.89 3.014z"/></g><path d="m226.953 154.296c6.641 6.786 6.526 17.673-.258 24.317s-17.679 6.151-25.754 1.158c-33.466-20.693-17.643-60.465 2.707-38.707 6.486 6.935 16.663 6.446 23.305 13.232z" fill="#ffe5c2"/><path d="m366.414 394.831c-6.784 6.644-17.667 6.528-24.308-.258s-6.149-17.685-1.158-25.763c20.686-33.478 60.444-17.649 38.693 2.708-6.931 6.488-6.443 16.669-13.227 23.313z" fill="#ffe5c2"/><g><path d="m301.055 188.253 9.911 21.873-40.488 18.359c-6.04 2.739-13.156.062-15.893-5.979l-.001-.003c-2.736-6.038-.06-13.151 5.977-15.889z" fill="#fff"/><path d="m282.655 209.779c-4.037-8.91-2.02-20.713 12.176-24.459 24.862-6.562 18.894-37.792 47.018-50.545 22.058-10.002 48.045-.222 58.044 21.844s.222 48.062-21.836 58.064c-28.124 12.753-46.508-12.848-68.989 2.057-12.237 8.115-22.376 1.949-26.413-6.961z" fill="#ea9b58"/><g><path d="m399.893 156.619c-9.999-22.066-35.986-31.846-58.044-21.844-.672.304-1.306.629-1.94.954 7.545 3.824 14.059 9.84 18.412 17.753 12.311 22.377 3.091 49.962-19.358 60.761 11.648 3.061 23.96 7.302 39.093.441 22.06-10.003 31.836-35.999 21.837-58.065z" fill="#d88a55"/></g></g><g><path d="m140.022 305.91-14.257 19.724-36.516-26.415c-5.444-3.938-6.666-11.542-2.73-16.987l.001-.001c3.938-5.448 11.547-6.67 16.993-2.731z" fill="#fff"/><path d="m111.494 300.292c5.73-7.927 16.975-12.031 27.27-1.56 18.03 18.338 42.175-2.34 67.197 15.76 19.625 14.196 24.03 41.619 9.839 61.252s-41.605 24.039-61.23 9.843c-25.022-18.1-11.924-46.769-36.014-58.899-13.114-6.605-12.792-18.469-7.062-26.396z" fill="#ea9b58"/><g><path d="m205.961 314.493c-16.513-11.945-32.644-7.003-46.887-7.53 2.286 1.07 4.583 2.406 6.887 4.073 19.625 14.196 24.03 41.62 9.839 61.252-4.972 6.878-11.569 11.879-18.883 14.874 19.411 12.243 45.248 7.446 58.883-11.417 14.191-19.633 9.786-47.056-9.839-61.252z" fill="#d88a55"/></g></g><g><path d="" fill="#fdb441"/></g></g><g><path d="m475.006 130.504c57.313-23.358 37.989-64.14 3.94-97.579-33.455-33.937-74.319-53.296-97.711 3.839-84.73-48.441-192.333-44.515-274.026 14.878-7.842 6.131.633 17.693 8.82 12.133 246.298-165.948 510.921 153.783 302.473 364.82-90.166 84.672-235.427 84.613-325.53-.001-95.574-87.431-99.262-249.326-5.964-339.918 2.917-2.939 2.901-7.687-.038-10.606s-7.688-2.903-10.606.036c-79.2 77.663-95.408 207.23-39.894 302.834-57.314 23.355-37.988 64.14-3.939 97.579 33.414 33.949 74.271 53.368 97.713-3.848 224.679 124.24 468.831-118.286 344.762-344.167zm-46.235-58.59c-10.871-10.209-22.455-19.285-34.589-27.229 12.326-26.749 24.122-49.936 74.167-1.144 26.607 26.624 48.144 55.11-1.245 74.004-10.833-16.57-23.64-31.833-38.333-45.631zm-325.482 418.098c-4.702 4.691-19.006 18.971-60.163-22.11-26.641-26.656-48.124-55.121 1.257-74.008 18.614 28.632 44.288 54.224 72.915 72.859-4.026 9.887-9.08 18.338-14.009 23.259z"/><path d="m34.677 255.722c-.925 189.443 221.396 290.54 365.033 169.068 3.155-2.681 3.539-7.414.856-10.57-2.682-3.156-7.414-3.54-10.572-.858-37.348 31.743-85.027 49.224-134.257 49.224-111.675 1.975-208.208-94.236-206.058-206.866-1.856-112.808 93.419-208.265 206.06-206.139 174.782-1.095 267.615 201.802 160.97 336.355-2.592 3.228-2.077 7.949 1.153 10.543s7.951 2.078 10.544-1.151c71.181-85.157 62.292-226.763-20.41-301.277-141.641-130.544-373.97-33.559-373.319 161.671z"/><path d="m263.328 140.15c3.027 5.916 10.446 8.336 16.39 5.292.001.001 15.389-7.879 15.391-7.877 5.973-3.059 8.347-10.409 5.291-16.386l-23.923-46.769c-3.028-5.917-10.475-8.323-16.392-5.295l-15.389 7.877c-5.975 3.059-8.349 10.41-5.292 16.386zm1.079-56.396 21.354 41.745-10.365 5.306c-5.084-9.938-16.418-32.096-21.501-42.035z"/><path d="m121.22 145.984c-6.323-2.044-13.291 1.523-15.333 7.846l-16.143 49.994c-2.062 6.39 1.458 13.266 7.845 15.33l16.449 5.315c6.212 1.648 13.273-1.463 15.334-7.846l16.142-49.993c2.063-6.389-1.456-13.266-7.844-15.331zm-5.256 63.344-11.079-3.58 14.409-44.623 11.078 3.58z"/><path d="m403.982 317.536c5.084 0 10.024-3.631 11.576-8.442l16.142-49.993c2.063-6.389-1.456-13.267-7.845-15.331l-16.448-5.315c-6.324-2.045-13.292 1.524-15.334 7.847l-16.141 49.993c-2.063 6.389 1.455 13.266 7.845 15.331 2.774.704 17.558 6.229 20.205 5.91zm1.499-63.939 11.078 3.58-14.408 44.623-11.078-3.58z"/><path d="m348.517 287.799c1-3.096.734-6.395-.747-9.289l-7.874-15.395c-3.028-5.917-10.475-8.323-16.392-5.295l-46.75 23.931c-5.977 3.06-8.352 10.411-5.293 16.387l7.875 15.395c3.027 5.918 10.445 8.336 16.392 5.295l46.748-23.931c2.896-1.482 5.041-4.003 6.041-7.098zm-57.113 16.39-5.305-10.371 41.727-21.359c6.181 12.085 5.43 10.307 5.43 10.307-9.934 5.085-31.917 16.338-41.852 21.423z"/><path d="m238.798 261.991c2.062-6.388-1.458-13.265-7.845-15.33l-49.974-16.147c-6.323-2.043-13.291 1.522-15.333 7.846l-5.314 16.457v.001c-2.062 6.389 1.458 13.266 7.845 15.33l49.974 16.147c6.308 2.039 13.296-1.536 15.333-7.846zm-18.722 9.163-44.603-14.412 3.58-11.086 44.603 14.412z"/><path d="m249.862 425.146 16.448 5.314c6.309 2.04 13.297-1.534 15.334-7.846l16.142-49.993c2.063-6.389-1.456-13.267-7.845-15.331l-16.447-5.314c-6.325-2.045-13.291 1.523-15.334 7.846l-16.142 49.993c-2.064 6.389 1.455 13.266 7.844 15.331zm21.704-58.028 11.096 3.526c-3.43 10.624-10.995 34.053-14.426 44.676l-11.078-3.579z"/><path d="m174.256 145.944c-1.402 11.772 3.835 28.517 22.741 40.207 10.609 6.56 25.588 6.986 34.945-2.18 9.727-9.525 9.893-25.19.371-34.92-6.438-6.579-17.15-6.655-23.188-13.11-15.741-16.559-32.705-7.603-34.869 10.003zm14.895 1.774c.565-3.685 1.676-5.309 2.978-5.469 1.07 0 3.272.978 6.041 3.939 6.483 6.931 17.097 6.892 23.422 13.354 3.739 3.821 3.674 9.972-.146 13.712-4.264 4.177-11.56 3.23-16.562.138-12.918-7.988-16.549-18.823-15.733-25.674z"/><path d="m354.127 407.238c13.386.144 21.448-9.865 25.799-21.306 1.396-3.672 2.602-6.842 4.841-8.938 10.067-9.422 9.264-17.859 7.889-22.049-2.288-6.972-8.98-11.768-17.903-12.827-11.77-1.398-28.503 3.846-40.184 22.751-11.625 17.917-1.605 42.133 19.558 42.369zm-6.799-34.486c7.286-11.792 16.941-15.848 23.776-15.848 6.399.348 10.838 2.04 3.412 9.138-4.775 4.469-6.813 9.829-8.611 14.558-2.664 7.007-10.436 16.905-18.438 8.728-4.177-4.269-3.232-11.57-.139-16.576z"/><path d="m292.917 178.068c-7.362 1.943-14.183 6.511-17.453 13.553l-18 8.162c-9.779 4.433-14.137 15.985-9.732 25.77 4.135 9.746 16.357 14.063 25.843 9.762l18.028-8.175c7.395 2.173 15.355-.003 21.608-4.148 8.107-5.375 15.019-3.881 26.532-.778 11.141 3.003 25.005 6.738 41.41-.7 25.787-11.693 37.258-42.194 25.569-67.991-11.53-25.448-42.469-37.143-67.973-25.579-16.502 7.483-23.08 20.586-28.365 31.114-5.318 10.601-8.753 16.71-17.467 19.01zm-25.536 43.586c-5.471 1.989-9.112-5.456-3.722-8.209 0 0 10.629-4.82 10.629-4.82.803 2.92 2.054 5.681 3.722 8.209zm56.412-55.866c4.876-9.714 9.482-18.89 21.154-24.183 17.997-8.162 39.992.186 48.115 18.108 8.275 18.265.155 39.86-18.103 48.139-11.504 5.217-21.125 2.624-31.312-.122-11.519-3.104-24.572-6.624-38.725 2.759-13.944 9.702-24.664-13.725-8.179-17.919 15.682-4.137 21.722-16.167 27.05-26.782z"/><path d="m210.357 308.416c-25.81-19.343-51.878-.356-66.245-14.941-7.535-7.665-15.124-8.833-20.178-8.459l-16.027-11.593c-8.616-6.234-21.224-4.223-27.467 4.415-6.352 8.786-4.372 21.104 4.412 27.458l16.075 11.628c1.247 4.908 4.737 11.669 14.256 16.463 8.688 4.375 10.82 11.119 13.84 22.662 2.921 11.164 6.556 25.058 21.151 35.615 22.674 16.402 55.344 11.106 71.704-11.525 16.59-22.952 11.422-55.126-11.521-71.723zm-117.76-21.792c1.884-2.15 4.057-2.499 6.519-1.048l9.348 6.762c-2.24 2.222-4.063 4.744-5.469 7.568l-9.351-6.764c-2.085-1.508-2.555-4.433-1.047-6.518zm117.125 84.726c-11.534 15.955-34.765 19.726-50.756 8.159-22.475-16.748-9.124-45.423-37.037-59.521-6.301-3.173-8.714-9.277-4.357-15.303 4.414-6.03 10.767-5.858 15.844-.695 21.508 21.527 45.587.389 68.149 16.578 16.244 11.752 19.903 34.532 8.157 50.782z"/><path d="m146.471 109.566c-9.652 0-9.668 15 0 15 9.652 0 9.668-15 0-15z"/><path d="m222.35 105.517c-9.652 0-9.668 15 0 15 9.652 0 9.668-15 0-15z"/><path d="m310.371 82.753c-9.652 0-9.668 15 0 15 9.651 0 9.667-15 0-15z"/><path d="m428.743 185.878c-9.652 0-9.668 15 0 15 9.651 0 9.667-15 0-15z"/><path d="m363.992 244.173c-9.652 0-9.668 15 0 15 9.652 0 9.668-15 0-15z"/><path d="m265.855 267.27c9.652 0 9.668-15 0-15-9.652 0-9.668 15 0 15z"/><path d="m213.245 222.738c9.652 0 9.668-15 0-15-9.652 0-9.668 15 0 15z"/><path d="m162.659 188.509c-9.652 0-9.668 15 0 15 9.651 0 9.667-15 0-15z"/><path d="m132.307 257.149c9.652 0 9.668-15 0-15-9.652 0-9.668 15 0 15z"/><path d="m247.644 322.934c9.652 0 9.668-15 0-15-9.652 0-9.668 15 0 15z"/><path d="m314.418 336.273c-9.652 0-9.668 15 0 15 9.651 0 9.667-15 0-15z"/><path d="m351.851 311.983c-9.652 0-9.668 15 0 15 9.652 0 9.668-15 0-15z"/><path d="m310.371 431.228c9.652 0 9.668-15 0-15-9.652 0-9.668 15 0 15z"/><path d="m217.292 426.167c9.652 0 9.668-15 0-15-9.652 0-9.668 15 0 15z"/><path d="m102.967 364.43c9.652 0 9.668-15 0-15-9.652 0-9.668 15 0 15z"/><path d="m79.697 234.052c-9.652 0-9.668 15 0 15 9.652 0 9.668-15 0-15z"/><path d="m411.543 347.224c9.652 0 9.668-15 0-15-9.652 0-9.668 15 0 15z"/><path d="m189.975 82.24c-9.652 0-9.668 15 0 15 9.652 0 9.668-15 0-15z"/><path d="m351.851 93.372c-9.652 0-9.668 15 0 15 9.652 0 9.668-15 0-15z"/><path d="m267.878 160.17c-9.652 0-9.668 15 0 15 9.652 0 9.668-15 0-15z"/><path d="m174.799 416.228c-9.652 0-9.668 15 0 15 9.652 0 9.668-15 0-15z"/><path d="m421.323 228.023c9.652 0 9.668-15 0-15-9.651 0-9.668 15 0 15z"/></g></g></svg>